<svg aria-hidden="true" style="position:absolute;width:0;height:0;overflow:hidden" xmlns="http://www.w3.org/2000/svg"><defs><symbol id="icon-client-1" viewBox="0 0 177 100"><path d="m56.216.752 15.005 14.205-27.852-.016V83.86h72.801V57.509l14.988 14.189V.752H56.216zm59.295 55.09L72.966 15.565h42.545v40.277zm-13.209 17.937H54.889V27.427h3.351V70.64h44.061v3.139zM66.085 93.036l-1.751 3.607-1.751-3.607h-1.469l2.556 4.809v2.802h1.328v-2.802l2.551-4.809h-1.464zm2.201 7.612.617-1.772h2.948l.622 1.772h1.38l-2.88-7.611h-1.187l-2.875 7.611h1.375zm2.091-5.996 1.103 3.158h-2.206l1.103-3.158zm6.973 2.974a1.727 1.727 0 0 0-.288.967c0 .641.225 1.162.675 1.563.453.397 1.056.596 1.809.596s1.401-.204 1.945-.612l.429.507h1.474l-1.119-1.323c.439-.599.659-1.368.659-2.305h-1.103c0 .512-.106.977-.319 1.396l-1.469-1.736.517-.376c.366-.265.629-.53.789-.795.16-.268.241-.561.241-.878 0-.481-.178-.883-.533-1.208-.352-.328-.805-.491-1.359-.491-.613 0-1.101.174-1.464.523-.362.345-.544.816-.544 1.411 0 .244.058.497.173.758.118.261.326.579.622.951-.565.404-.943.754-1.134 1.051zm3.435 1.683c-.373.286-.774.429-1.202.429-.38 0-.683-.11-.91-.329s-.34-.505-.34-.857c0-.408.209-.77.627-1.087l.162-.115 1.662 1.96zm-1.365-3.371c-.359-.443-.538-.81-.538-1.103 0-.255.073-.465.22-.632s.343-.251.591-.251c.23 0 .42.071.57.214.15.139.225.308.225.507a.94.94 0 0 1-.324.737l-.162.131-.58.397zm12.389 4.135c.523-.457.823-1.091.899-1.903h-1.317c-.07.544-.235.932-.497 1.166s-.652.35-1.171.35c-.568 0-1-.216-1.296-.648-.293-.432-.439-1.059-.439-1.882v-.674c.007-.812.164-1.427.471-1.845.31-.422.753-.632 1.328-.632.495 0 .87.122 1.124.366.258.241.418.634.481 1.181h1.317c-.084-.833-.382-1.478-.894-1.934s-1.188-.685-2.028-.685c-.624 0-1.174.148-1.652.444-.474.296-.838.718-1.092 1.265s-.382 1.18-.382 1.898v.711c.01.7.141 1.316.392 1.845s.606.939 1.066 1.228c.464.286.998.429 1.605.429.868 0 1.563-.227 2.086-.679zm7.774-1.067c.258-.565.387-1.22.387-1.966v-.423c-.003-.742-.136-1.392-.397-1.95-.261-.561-.632-.99-1.113-1.286-.478-.3-1.026-.45-1.647-.45s-1.171.152-1.652.455c-.478.3-.849.734-1.113 1.302-.261.568-.392 1.223-.392 1.966v.429c.003.728.136 1.371.397 1.929.265.558.638.988 1.119 1.291.484.3 1.035.449 1.652.449.624 0 1.174-.15 1.652-.449.481-.303.85-.735 1.108-1.296zm-1.417-4.302c.321.45.481 1.096.481 1.94v.397c0 .857-.159 1.509-.476 1.955-.314.446-.763.669-1.349.669-.579 0-1.032-.228-1.359-.685-.324-.457-.486-1.103-.486-1.94v-.439c.007-.819.171-1.451.491-1.898.324-.449.772-.674 1.344-.674.585 0 1.037.225 1.354.674z"/></symbol><symbol id="icon-client-2" viewBox="0 0 177 100"><path d="M82.779 5.643h-.263c-.404-.024-.808-.034-1.211-.044h-.876c-.764 0-1.542.02-2.316.059a1.278 1.278 0 0 0-.175 0 54.385 54.385 0 0 0-20.224 5.159l-.832.401v42.58l1.946-.66a73.714 73.714 0 0 1 5.41-1.604 65.97 65.97 0 0 1 15.568-2.068v5.594c-.696.005-1.372.025-2.048.059h-.161a62.278 62.278 0 0 0-11.978 1.839 60.81 60.81 0 0 0-14.269 5.56V7.908A57.16 57.16 0 0 1 66.319 1.82 57.312 57.312 0 0 1 80.427.001h.822c.983.024 1.941.069 2.841.137 2.371.167 4.723.541 7.03 1.12v5.506a43.512 43.512 0 0 0-6.811-1.027l-.14-.012c-.475-.04-.95-.081-1.393-.081zm9.691 5.629c1.221.093 2.486.137 3.766.137a60.507 60.507 0 0 0 14.833-1.902 61.1 61.1 0 0 0 14.264-5.565v53.637a57.324 57.324 0 0 1-14.974 6.088 57.552 57.552 0 0 1-14.108 1.814 43.09 43.09 0 0 1-10.703-1.262V10.235a43.33 43.33 0 0 0 2.544.513c1.421.24 2.919.416 4.379.523zm27.297.416-1.946.655a86.382 86.382 0 0 1-5.41 1.619 65.855 65.855 0 0 1-16.166 2.073c-1.27 0-2.437-.034-3.566-.108l-1.552-.103v43.802l1.333.117c1.236.108 2.51.161 3.795.161a51.696 51.696 0 0 0 12.731-1.648 53.404 53.404 0 0 0 9.949-3.575l.832-.401V11.686zM55.132 81.179a2.877 2.877 0 0 0-2.165-.876 3.207 3.207 0 0 0-1.25.235 2.887 2.887 0 0 0-.973.641 2.825 2.825 0 0 0-.628.978 3.178 3.178 0 0 0-.224 1.208v7.296a3.445 3.445 0 0 0 .287 1.496c.172.374.421.707.73.978a2.54 2.54 0 0 0 1.002.518c.355.1.721.151 1.09.152.406.004.808-.083 1.177-.254.365-.16.695-.389.973-.675.271-.283.487-.615.637-.978.156-.368.235-.764.234-1.164v-.817h-1.907v.65c.006.222-.032.443-.112.65a1.185 1.185 0 0 1-.277.411 1.159 1.159 0 0 1-.399.21 1.354 1.354 0 0 1-.399.069.964.964 0 0 1-.895-.392 1.725 1.725 0 0 1-.253-.978v-6.802a2.319 2.319 0 0 1 .233-1.09.977.977 0 0 1 .934-.44 1.017 1.017 0 0 1 .851.411c.213.28.325.625.316.978v.631h1.888v-.743a3.432 3.432 0 0 0-.234-1.276 3.015 3.015 0 0 0-.637-1.027zM66.462 81.095a3.4 3.4 0 0 0-2.17-.802 3.347 3.347 0 0 0-1.138.205 3.09 3.09 0 0 0-1.007.597 3.011 3.011 0 0 0-.74 1.022 3.398 3.398 0 0 0-.277 1.413v6.998c-.013.492.082.981.277 1.433.173.376.425.71.74.978.292.271.634.48 1.007.616.365.134.75.204 1.138.205a3.3 3.3 0 0 0 2.169-.821c.304-.273.549-.606.72-.978.196-.452.291-.941.277-1.433V83.53a3.407 3.407 0 0 0-.277-1.413 3.15 3.15 0 0 0-.72-1.022zm-.89 9.434a1.265 1.265 0 0 1-.379 1.012 1.4 1.4 0 0 1-1.796 0 1.257 1.257 0 0 1-.379-1.012v-6.998a1.265 1.265 0 0 1 .379-1.012 1.398 1.398 0 0 1 1.796 0 1.261 1.261 0 0 1 .379 1.012v6.998zM81.344 93.654V80.406H79.51l-2.408 7.013h-.034l-2.428-7.013h-1.815v13.248h1.892v-8.059h.034l1.854 5.697h.944l1.868-5.697h.034v8.059h1.892zM92.096 81.335a2.629 2.629 0 0 0-1.07-.724 4.202 4.202 0 0 0-1.372-.205h-2.812v13.248h1.887V88.48h.973a3.454 3.454 0 0 0 1.703-.362 2.75 2.75 0 0 0 1.036-1.012c.218-.352.365-.745.433-1.154a9.49 9.49 0 0 0 .102-1.506 7.568 7.568 0 0 0-.185-1.892 2.818 2.818 0 0 0-.696-1.218zm-.973 4.039c-.008.24-.068.475-.175.69a1.055 1.055 0 0 1-.486.464c-.28.125-.585.182-.89.166h-.861V82.19h.973a1.82 1.82 0 0 1 .851.166c.195.112.35.283.443.489.103.233.159.484.165.738v.88c0 .308.019.626 0 .91h-.019zM101.037 80.406H99.49l-2.919 13.248h1.888l.555-2.846h2.574l.555 2.846h1.888l-2.992-13.248zm-1.741 8.597.929-4.802h.034l.924 4.802h-1.888zM113.234 88.387h-.034l-2.851-7.981h-1.815v13.248h1.888v-7.966h.039l2.885 7.966h1.776V80.406h-1.887v7.981zM124.768 80.406l-1.518 5.267h-.039l-1.518-5.267h-1.999l2.593 7.648v5.599h1.888v-5.599l2.593-7.648h-1.999zM49.868 97.395h.91v2.553h.618v-2.553h.905v-.523h-2.433v.523zM57.516 96.871l-1.192 3.076h.657l.253-.699h1.226l.263.699h.671l-1.221-3.076h-.657zm-.098 1.858.418-1.139.418 1.139h-.837zM65.076 98.813h.71v.396a1.174 1.174 0 0 1-.73.259.772.772 0 0 1-.652-.293 1.293 1.293 0 0 1-.229-.802c0-.685.297-1.027.885-1.027a.655.655 0 0 1 .696.489l.608-.117c-.131-.601-.564-.905-1.304-.905a1.545 1.545 0 0 0-1.075.396 1.506 1.506 0 0 0-.442 1.184c-.018.421.123.833.394 1.154a1.486 1.486 0 0 0 1.168.45c.481.013.949-.162 1.304-.489v-1.213h-1.333v.518zM72.796 96.871h-.623v3.076h2.155v-.523h-1.532v-2.553zM79.325 96.871h-.623v3.076h.623v-3.076zM85.708 98.925l-1.26-2.054h-.603v3.076h.579v-2.01l1.236 2.01h.618v-3.076h-.569v2.054zM91.478 98.593h1.533v-.523h-1.533v-.675h1.649v-.523h-2.272v3.076h2.335v-.523h-1.713v-.831zM105.469 98.084h-1.211v-1.213h-.618v3.076h.618v-1.345h1.211v1.345h.618v-3.076h-.618v1.213zM111.273 98.593h1.537v-.523h-1.537v-.675h1.654v-.523h-2.272v3.076h2.33v-.523h-1.712v-.831zM119.144 98.593c.535-.083.808-.367.808-.856a.734.734 0 0 0-.301-.685 1.74 1.74 0 0 0-.9-.181h-1.304v3.076h.618v-1.286h.122a.818.818 0 0 1 .384.069c.09.056.166.133.219.225l.671.978h.739l-.375-.601a2.142 2.142 0 0 0-.681-.738zm-.622-.426h-.457v-.773h.486a1.63 1.63 0 0 1 .628.073.407.407 0 0 1 .135.321.4.4 0 0 1-.165.306 1.755 1.755 0 0 1-.628.073zM125.08 98.593h1.532v-.523h-1.532v-.675h1.654v-.523h-2.277v3.076h2.335v-.523h-1.712v-.831z"/></symbol><symbol id="icon-client-3" viewBox="0 0 177 100"><path d="M48.04 96.383a.305.305 0 0 1 .205.08l.53.506c-.411.41-.919.737-1.49.961a5.797 5.797 0 0 1-2.112.345 5.615 5.615 0 0 1-1.986-.322 4.34 4.34 0 0 1-1.496-.909 4.071 4.071 0 0 1-.967-1.404 4.686 4.686 0 0 1-.338-1.801 4.355 4.355 0 0 1 .364-1.806c.231-.523.58-1 1.026-1.404a4.8 4.8 0 0 1 1.589-.915 6.215 6.215 0 0 1 2.046-.322 5.507 5.507 0 0 1 1.9.293 5.128 5.128 0 0 1 1.423.811l-.444.541a.46.46 0 0 1-.112.098.307.307 0 0 1-.179.04.423.423 0 0 1-.192-.058l-.238-.144-.331-.184a3.737 3.737 0 0 0-.444-.178 4.71 4.71 0 0 0-.602-.144 4.615 4.615 0 0 0-.788-.058 4.267 4.267 0 0 0-1.47.242 3.369 3.369 0 0 0-1.152.679c-.33.313-.584.681-.748 1.082a3.628 3.628 0 0 0-.271 1.427c-.008.493.084.984.271 1.45.162.397.411.763.735 1.076.303.292.679.52 1.099.668.432.156.896.234 1.364.23.27.004.54-.012.808-.046a3.176 3.176 0 0 0 1.225-.386c.185-.106.36-.225.523-.357a.42.42 0 0 1 .252-.092zM63.334 93.84a4.402 4.402 0 0 1-.357 1.789c-.216.519-.556.992-.997 1.389s-.975.708-1.565.912a6.44 6.44 0 0 1-4.025 0 4.644 4.644 0 0 1-1.556-.915 4.07 4.07 0 0 1-1.007-1.404 4.667 4.667 0 0 1 0-3.584 4.211 4.211 0 0 1 1.007-1.41 4.657 4.657 0 0 1 1.556-.88 6.343 6.343 0 0 1 4.025 0c.588.208 1.12.519 1.562.915.436.4.776.871 1 1.386.245.576.366 1.187.357 1.801zm-1.39 0a3.804 3.804 0 0 0-.252-1.438 2.963 2.963 0 0 0-.709-1.076 3.14 3.14 0 0 0-1.119-.679 4.662 4.662 0 0 0-2.926 0 3.135 3.135 0 0 0-1.119.679 2.897 2.897 0 0 0-.715 1.076 4.217 4.217 0 0 0 0 2.876c.149.398.393.764.715 1.076a3.13 3.13 0 0 0 1.119.673 4.778 4.778 0 0 0 2.926 0 3.13 3.13 0 0 0 1.119-.673c.318-.313.558-.679.709-1.076.178-.464.263-.95.252-1.438zM73.768 95.347l.139.322c.053-.115.099-.219.152-.322.05-.108.108-.214.172-.316l3.383-5.344c.066-.092.126-.149.192-.167a.896.896 0 0 1 .278-.029h1v8.691h-1.185v-6.66c-.007-.1-.007-.2 0-.299l-3.403 5.419c-.043.081-.112.15-.199.198s-.188.073-.291.073h-.192c-.103.001-.204-.024-.291-.072s-.156-.117-.198-.199l-3.502-5.453V98.166h-1.145v-8.674h1a.896.896 0 0 1 .278.029.372.372 0 0 1 .186.167l3.456 5.35c.068.099.125.203.172.311zM86.5 94.916v3.256h-1.324v-8.68h2.953a6.341 6.341 0 0 1 1.649.19c.429.106.826.29 1.165.541.294.235.521.526.662.851.156.354.233.731.225 1.11a2.416 2.416 0 0 1-.96 1.979c-.34.261-.739.457-1.172.575a5.596 5.596 0 0 1-1.596.201l-1.602-.023zm0-.933h1.602c.348.004.694-.041 1.026-.132.274-.08.526-.207.741-.374.199-.159.353-.356.45-.575a1.65 1.65 0 0 0 .159-.73c.015-.241-.03-.483-.133-.707s-.261-.427-.463-.593a2.85 2.85 0 0 0-1.781-.466h-1.602v3.578zM104.296 98.183h-1.046a.496.496 0 0 1-.291-.081.542.542 0 0 1-.172-.201l-.9-2.1h-4.522l-.933 2.1a.497.497 0 0 1-.464.282h-1.046l3.972-8.692h1.377l4.025 8.692zm-6.555-3.227h3.734l-1.576-3.538a5.672 5.672 0 0 1-.298-.817l-.153.455a4.051 4.051 0 0 1-.145.368l-1.563 3.532zM110.016 89.531a.578.578 0 0 1 .199.155l5.793 6.552V89.49h1.185v8.692h-.662a.636.636 0 0 1-.271-.052.725.725 0 0 1-.212-.161l-5.786-6.546c.006.1.006.199 0 .299v6.46h-1.185V89.49h.702a.637.637 0 0 1 .238.04zM126.952 94.726v3.452h-1.324v-3.452l-3.661-5.235h1.185a.477.477 0 0 1 .285.075.773.773 0 0 1 .179.196l2.291 3.377c.093.144.172.276.238.403s.119.247.166.368l.172-.374c.064-.137.14-.269.225-.397l2.258-3.4a.88.88 0 0 1 .172-.184.44.44 0 0 1 .285-.086h1.198l-3.668 5.258zM73.113 74.905c.576.063 1.159.115 1.748.161 8.933-3.472 16.49-9.155 21.727-16.338s7.92-15.548 7.715-24.049l-9.845-8.554c2.002 9.051 1.065 18.407-2.704 27.022S81.53 69.296 73.113 74.905z"/><path d="m69.597 74.507.265.046c8.994-5.589 15.851-13.395 19.685-22.406s4.467-18.816 1.819-28.144L77.343 11.82c5.672 10.014 7.955 21.222 6.583 32.319s-6.34 21.628-14.329 30.368zM117.153 44.722c-2.382 9.341-8.169 17.765-16.499 24.021a52.519 52.519 0 0 1-7.839 4.889c6.783-1.732 13.018-4.795 18.224-8.952s9.243-9.297 11.801-15.024l-5.687-4.935z"/><path d="m114.922 43.347-8.097-7.035c-.155 8.021-2.779 15.859-7.601 22.701S87.56 71.449 79.409 75.215h.04c1.817 0 3.632-.095 5.435-.282 7.618-2.702 14.349-7 19.59-12.511s8.831-12.064 10.448-19.074zM70.769 6.682 61.11-1.722c-8.635 2.899-16.062 7.996-21.308 14.623s-8.067 14.476-8.094 22.52c.032 8.888 3.475 17.512 9.784 24.508s15.123 11.965 25.047 14.118c8.859-9.378 14.046-20.967 14.807-33.081S78.402 16.841 70.769 6.681zM137.24 42.053c-.035-10.545-4.872-20.649-13.454-28.105S103.575 2.289 91.438 2.259a51.42 51.42 0 0 0-16.399 2.652l59.142 51.385c2.025-4.542 3.062-9.371 3.059-14.243z"/></symbol><symbol id="icon-client-4" viewBox="0 0 177 100"><path d="M36.12 30.531h-.007c-5.903 0-10.688 4.253-10.688 9.499v.006c0 5.246 4.786 9.499 10.688 9.499h.007c5.903 0 10.688-4.253 10.688-9.499v-.006c0-5.246-4.786-9.499-10.688-9.499zM115.013 27.495c-.017-7.286-3.281-14.27-9.078-19.423S92.28.017 84.081 0C75.88.013 68.018 2.914 62.218 8.067s-9.066 12.139-9.083 19.428v40.181s61.87-6.124 61.877-40.175v-.006zM3.759 80.864c.015 5.07 2.287 9.929 6.321 13.514s9.5 5.607 15.205 5.622c5.704-.015 11.169-2.035 15.202-5.62s6.307-8.441 6.323-13.51V52.911S3.76 57.175 3.76 80.864zm21.525 5.009c-1.115 0-2.205-.294-3.132-.844s-1.649-1.333-2.076-2.248c-.427-.915-.538-1.923-.321-2.894s.754-1.864 1.542-2.565 1.793-1.178 2.886-1.371c1.093-.193 2.227-.094 3.257.285s1.91 1.021 2.53 1.845.95 1.792.95 2.783c.003.659-.141 1.313-.423 1.923s-.697 1.164-1.221 1.631c-.524.467-1.146.838-1.832 1.091s-1.42.383-2.162.383v-.019zM68.79 83.115h-4.154v4.291h-2.164v-10.5h6.837v1.752h-4.673v2.712h4.154v1.745zm10.4-.721c0 1.034-.183 1.94-.548 2.719s-.889 1.38-1.572 1.803c-.678.423-1.457.635-2.337.635-.87 0-1.647-.209-2.329-.627s-1.212-1.014-1.586-1.788c-.375-.779-.565-1.673-.57-2.683v-.519c0-1.034.185-1.942.555-2.726.375-.789.902-1.392 1.579-1.81.683-.423 1.462-.635 2.337-.635s1.652.211 2.329.635c.683.418 1.209 1.022 1.579 1.81.375.783.563 1.69.563 2.719v.469zm-2.193-.477c0-1.101-.197-1.938-.591-2.51s-.957-.858-1.687-.858c-.726 0-1.286.284-1.68.851-.394.563-.594 1.389-.598 2.481v.512c0 1.072.197 1.904.591 2.495s.962.887 1.702.887c.726 0 1.284-.284 1.673-.851.389-.572.587-1.404.591-2.495v-.512zm9.21 2.734c0-.409-.144-.721-.433-.938-.288-.221-.808-.452-1.558-.692-.75-.246-1.344-.486-1.781-.721-1.192-.644-1.788-1.512-1.788-2.604 0-.567.158-1.072.476-1.515.322-.447.781-.796 1.378-1.046.601-.25 1.274-.375 2.019-.375.75 0 1.418.137 2.005.411.586.269 1.041.651 1.363 1.147.327.495.49 1.058.49 1.687h-2.164c0-.481-.151-.853-.454-1.118-.303-.269-.728-.404-1.276-.404-.529 0-.94.113-1.233.339-.293.221-.44.514-.44.88 0 .341.171.627.512.858.346.231.853.447 1.522.649 1.231.37 2.128.829 2.69 1.378s.844 1.231.844 2.048c0 .909-.344 1.623-1.031 2.142-.687.514-1.613.772-2.776.772-.808 0-1.543-.147-2.207-.44-.663-.298-1.171-.704-1.522-1.219-.346-.514-.519-1.111-.519-1.789h2.171c0 1.159.692 1.738 2.077 1.738.514 0 .916-.103 1.204-.31.288-.211.433-.505.433-.88zm11.546-5.993h-3.217v8.748h-2.164v-8.748h-3.173v-1.752h8.553v1.752zm7.558 4.197h-4.154v2.813h4.875v1.738h-7.039v-10.5h7.024v1.752h-4.861v2.503h4.154v1.695zm5.878.707h-1.724v3.844h-2.164v-10.5h3.902c1.24 0 2.197.276 2.87.829s1.009 1.334 1.009 2.344c0 .717-.156 1.315-.469 1.796-.308.476-.776.856-1.406 1.139l2.272 4.291v.101h-2.322l-1.969-3.844zm-1.724-1.753h1.745c.543 0 .964-.137 1.262-.411.298-.279.447-.661.447-1.147 0-.495-.142-.885-.425-1.169-.279-.284-.709-.425-1.291-.425h-1.738v3.152zm13.111 1.897v3.7h-2.164v-10.5h4.096c.788 0 1.481.144 2.077.433a3.172 3.172 0 0 1 1.385 1.233c.322.529.483 1.132.483 1.81 0 1.029-.354 1.841-1.06 2.438-.702.592-1.676.887-2.921.887h-1.897zm0-1.752h1.933c.572 0 1.007-.135 1.305-.404.303-.269.454-.654.454-1.154 0-.514-.152-.93-.454-1.248s-.721-.481-1.255-.49h-1.983v3.296zm13.688.901h-4.154v2.813h4.875v1.738h-7.039v-10.5h7.024v1.752h-4.861v2.503h4.154v1.695zm10.039-4.197h-3.216v8.748h-2.164v-8.748h-3.173v-1.752h8.553v1.752zm7.559 4.197h-4.154v2.813h4.875v1.738h-7.039v-10.5h7.024v1.752h-4.861v2.503h4.154v1.695zm5.877.707h-1.724v3.844h-2.164v-10.5h3.901c1.24 0 2.197.276 2.87.829s1.01 1.334 1.01 2.344c0 .717-.156 1.315-.469 1.796-.308.476-.777.856-1.406 1.139l2.272 4.291v.101h-2.322l-1.969-3.844zm-1.723-1.753h1.745c.543 0 .964-.137 1.262-.411.298-.279.447-.661.447-1.147 0-.495-.142-.885-.426-1.169-.279-.284-.709-.425-1.291-.425h-1.738v3.152zm12.714 2.842c0-.409-.144-.721-.433-.938-.288-.221-.808-.452-1.558-.692-.75-.246-1.344-.486-1.781-.721-1.192-.644-1.789-1.512-1.789-2.604 0-.567.159-1.072.476-1.515.322-.447.781-.796 1.377-1.046.601-.25 1.274-.375 2.019-.375.75 0 1.418.137 2.005.411.587.269 1.041.651 1.363 1.147.327.495.49 1.058.49 1.687h-2.164c0-.481-.151-.853-.454-1.118-.303-.269-.728-.404-1.277-.404-.529 0-.94.113-1.233.339-.293.221-.44.514-.44.88 0 .341.171.627.512.858.346.231.853.447 1.522.649 1.231.37 2.127.829 2.69 1.378s.844 1.231.844 2.048c0 .909-.344 1.623-1.031 2.142-.688.514-1.613.772-2.776.772-.808 0-1.543-.147-2.207-.44-.664-.298-1.171-.704-1.522-1.219-.346-.514-.519-1.111-.519-1.789h2.171c0 1.159.692 1.738 2.077 1.738.514 0 .916-.103 1.204-.31.288-.211.433-.505.433-.88z"/></symbol><symbol id="icon-client-5" viewBox="0 0 177 100"><path d="M29.974 83.57c.536.608.822 1.369.807 2.15.027.51-.071 1.018-.288 1.489s-.546.89-.963 1.228a5.783 5.783 0 0 1-3.635.992h-6.391V75.802h6.26a5.71 5.71 0 0 1 3.468.905c.404.31.724.701.935 1.144s.306.924.279 1.406a2.98 2.98 0 0 1-.727 2.084 3.46 3.46 0 0 1-1.905 1.065 3.716 3.716 0 0 1 2.159 1.165zm-7.496-2.057h2.675a2.708 2.708 0 0 0 1.701-.453c.201-.167.357-.374.457-.604s.14-.48.117-.727c.019-.246-.022-.494-.12-.724s-.251-.438-.447-.607a2.757 2.757 0 0 0-1.752-.459h-2.632v3.575zm4.639 5.226c.215-.171.383-.385.493-.625s.157-.5.139-.76c.016-.263-.033-.526-.146-.768s-.284-.458-.501-.63a2.95 2.95 0 0 0-1.818-.493h-2.807v3.748h2.843a3.01 3.01 0 0 0 1.796-.473zM42.771 89.428l-3.483-5.326h-1.309v5.326h-2.996V75.801h5.671c1.43-.091 2.843.323 3.948 1.158.793.739 1.271 1.714 1.348 2.748s-.251 2.059-.926 2.891a4.732 4.732 0 0 1-2.705 1.385l3.708 5.446H42.77zm-4.792-7.183h2.45c1.701 0 2.552-.688 2.552-2.064.017-.281-.029-.562-.137-.826s-.274-.504-.488-.705a2.827 2.827 0 0 0-1.927-.553H37.95l.029 4.147zM59.145 86.685h-5.969l-1.054 2.743h-3.141l5.482-13.474h3.396l5.46 13.474h-3.141l-1.033-2.743zm-.8-2.064-2.181-5.752-2.181 5.752h4.362zM79.641 89.428h-2.974L70 80.161v9.267h-2.967V75.8H70l6.667 9.321V75.8h2.974v13.628zM96.612 86.166c-.615 1.029-1.552 1.866-2.69 2.403a9.43 9.43 0 0 1-4.181.859h-5.293V75.8h5.293a9.62 9.62 0 0 1 4.181.839c1.138.525 2.076 1.354 2.69 2.377.612 1.108.931 2.333.931 3.575s-.319 2.467-.931 3.575zm-3.403-.326c.849-.905 1.315-2.059 1.315-3.252s-.467-2.347-1.315-3.252c-1.026-.82-2.364-1.236-3.723-1.158h-2.065v8.821h2.065c1.359.078 2.697-.339 3.723-1.158zM61.006 0s38.383 13.268 37.569 32.468v32.474S60.221 51.667 61.021 32.468L61.006 0zM132.769 57.34c7.249-4.568 15.634-7.397 24.387-8.229V38.945c-10.085 3.559-18.641 10.012-24.387 18.394z"/><path d="M128.414 60.402c5.933-10.939 16.219-19.38 28.742-23.587V7.523s-54.663 18.9-53.506 46.242V100s2.436-.845 6.267-2.43c0-1.478 0-2.969.175-4.467 1.131-12.693 7.722-24.456 18.322-32.701z"/><path d="M123.216 77.578a44.15 44.15 0 0 1 1.912-9.467c-6.601 7.121-10.598 15.956-11.43 25.265-.08.879-.124 1.758-.146 2.663a164.55 164.55 0 0 0 10.514-5.073 43.92 43.92 0 0 1-.851-13.388zM125.39 77.745a41.928 41.928 0 0 0 .676 12.123c14.934-8.182 31.715-20.824 31.068-36.103v-1.331c-10.67 1.093-20.653 5.364-28.415 12.156a42.38 42.38 0 0 0-3.33 13.155z"/></symbol><symbol id="icon-client-6" viewBox="0 0 177 100"><path d="M89.325 47.511c-.835-1.111-1.234-2.424-1.139-3.746v-5.431c0-1.665.377-2.93 1.133-3.795s2.052-1.296 3.89-1.293c1.728 0 2.954.368 3.679 1.105.791.94 1.176 2.089 1.088 3.248v1.276h-3.091v-1.293a6.547 6.547 0 0 0-.09-1.265 1.221 1.221 0 0 0-.441-.751 1.787 1.787 0 0 0-1.12-.293 1.896 1.896 0 0 0-1.177.309 1.447 1.447 0 0 0-.512.829 6.251 6.251 0 0 0-.121 1.343v6.591a3.368 3.368 0 0 0 .397 1.851c.154.196.367.351.617.449s.526.133.797.104c.396.028.789-.079 1.094-.298.252-.216.414-.497.461-.801.072-.437.104-.879.096-1.32v-1.337h3.091v1.221c.087 1.208-.289 2.408-1.069 3.414-.71.807-1.92 1.21-3.698 1.21s-3.123-.431-3.884-1.326zM102.193 47.567c-.781-.845-1.171-2.077-1.171-3.707v-5.712c0-1.613.39-2.834 1.171-3.663s2.086-1.241 3.916-1.237c1.817 0 3.116.412 3.897 1.237.781.829 1.177 2.05 1.177 3.663v5.712c0 1.613-.397 2.851-1.19 3.701s-2.086 1.276-3.884 1.276-3.129-.431-3.916-1.271zm5.356-1.37a3.18 3.18 0 0 0 .371-1.69v-6.994a3.106 3.106 0 0 0-.365-1.657c-.157-.2-.376-.358-.631-.455s-.538-.131-.815-.097c-.278-.033-.561.001-.817.098s-.477.255-.635.454a3.037 3.037 0 0 0-.371 1.657v7.027a3.123 3.123 0 0 0 .371 1.69c.18.178.403.321.652.419s.52.148.794.148.545-.051.794-.148.472-.241.652-.419v-.033zM114.9 33.414h3.327l2.502 10.539 2.56-10.539h3.238l.326 15.213h-2.393l-.256-10.573-2.47 10.573h-1.92l-2.56-10.611-.237 10.611h-2.419l.301-15.213zM130.584 33.414h5.183c2.986 0 4.479 1.44 4.479 4.32 0 2.758-1.572 4.136-4.716 4.132h-1.766v6.761h-3.199l.019-15.213zm4.428 6.502c.316.035.637.01.941-.074s.583-.222.819-.407a2.465 2.465 0 0 0 .461-1.718 4.745 4.745 0 0 0-.154-1.381c-.046-.151-.126-.293-.235-.417s-.247-.228-.404-.306a3.317 3.317 0 0 0-1.427-.243h-1.242v4.546h1.242zM144.86 33.414h3.436l3.526 15.213h-2.982l-.697-3.508h-3.065l-.717 3.508h-3.026l3.526-15.213zm2.936 9.943-1.197-6.385-1.196 6.385h2.393zM154.669 33.414h2.239l4.287 8.678v-8.678h2.655v15.213h-2.131l-4.313-9.059v9.059h-2.745l.006-15.213zM170.071 42.826l-3.564-9.391h3.001l2.176 6.032 2.041-6.032h2.937l-3.519 9.391v5.8h-3.071v-5.8zM94.265 55.278v.796h-2.611v6.182H90.56v-6.182h-2.623v-.796h6.328zM102.449 62.256h-.845a.382.382 0 0 1-.237-.066.367.367 0 0 1-.141-.16l-.755-1.657h-3.622l-.755 1.657a.463.463 0 0 1-.115.188.389.389 0 0 1-.237.066h-.845l3.199-6.977h1.114l3.238 6.949zm-5.299-2.591h3.02l-1.28-2.839a5.107 5.107 0 0 1-.237-.657c-.045.133-.083.26-.121.37l-.115.293-1.267 2.834zM107.964 61.57c.2.009.401.009.601 0 .173-.015.344-.043.512-.083a3.97 3.97 0 0 0 .461-.127c.141-.05.282-.111.429-.171V59.62h-1.28a.247.247 0 0 1-.173-.055c-.021-.016-.038-.035-.049-.057s-.016-.046-.015-.07v-.536h2.483v2.674a4.773 4.773 0 0 1-1.35.57 5.802 5.802 0 0 1-.8.144 9.7 9.7 0 0 1-.934.044 4.877 4.877 0 0 1-1.613-.26 3.935 3.935 0 0 1-1.28-.729 3.367 3.367 0 0 1-.825-1.105 3.485 3.485 0 0 1-.294-1.448 3.618 3.618 0 0 1 .288-1.459c.184-.413.465-.79.825-1.105.365-.314.801-.56 1.28-.724a5.38 5.38 0 0 1 1.715-.26c.298 0 .595.02.889.061.26.037.515.096.762.177.224.072.438.165.64.276.196.109.382.231.557.365l-.307.431c-.024.039-.06.072-.104.096s-.094.036-.146.037a.417.417 0 0 1-.198-.055 3.816 3.816 0 0 1-.314-.166 2.787 2.787 0 0 0-.429-.188 4.048 4.048 0 0 0-.589-.155 4.905 4.905 0 0 0-.813-.061 3.808 3.808 0 0 0-1.235.193 2.717 2.717 0 0 0-.941.552 2.426 2.426 0 0 0-.595.868 3.26 3.26 0 0 0 0 2.326 2.5 2.5 0 0 0 .64.879c.262.239.581.428.934.552a3.58 3.58 0 0 0 1.267.138zM118.164 61.46h3.494v.795h-4.562v-6.977h1.094l-.026 6.182zM125.292 62.255h-1.094v-6.977h1.094v6.977zM129.362 55.311a.514.514 0 0 1 .166.127l4.677 5.259a1.724 1.724 0 0 1 0-.249V55.25h.953v7.005h-.55a.516.516 0 0 1-.237-.039.633.633 0 0 1-.173-.133l-4.671-5.254V62.254h-.915v-6.978h.57c.062 0 .123.012.179.033zM143.215 55.278v.768h-3.878v2.304h3.142v.74h-3.142v2.381h3.878v.768h-5.004v-6.961h5.004zM28.556 12.19 77.142 24.1v41.735L28.556 53.93V12.189zM25.44 8.633v47.326l54.812 13.44v-47.32L25.44 8.633z"/><path d="M54.817 91.367-.001 77.915V30.594L54.817 44.04v47.326z"/><path d="m26.349 11.654 47.952 11.761-20.393 17.611L5.95 29.26l20.399-17.605zm-.909-3.021L-.001 30.597l54.818 13.446 25.435-21.964L25.44 8.633zM57.901 88.705l22.351-19.301-22.351-5.485v24.786z"/></symbol><symbol id="icon-astronaut" viewBox="0 0 100 100"><path fill="#2196f3" style="fill:var(--color1, #2196f3)" d="M99.919 14.138a1.675 1.675 0 0 0-1.335-1.132l-.009-.001-5.971-.869-2.671-5.41c-.559-1.14-2.429-1.14-2.987 0l-2.671 5.41-5.971.869a1.67 1.67 0 0 0-.926 2.843l4.323 4.212-1.02 5.946c-.107.626.15 1.257.661 1.631a1.66 1.66 0 0 0 1.757.126l5.34-2.809 5.34 2.809a1.67 1.67 0 0 0 2.417-1.768l.001.01-1.02-5.946 4.321-4.213a1.668 1.668 0 0 0 .418-1.721l.003.012zm-7.696 4.148a1.668 1.668 0 0 0-.479 1.476l.596 3.481-3.126-1.643a1.654 1.654 0 0 0-1.563.004l.009-.004-3.126 1.643.596-3.481a1.664 1.664 0 0 0-.477-1.475L82.12 15.82l3.497-.507a1.671 1.671 0 0 0 1.256-.913l1.563-3.166 1.563 3.166c.243.493.711.834 1.256.913l3.497.507-2.529 2.467zM81.667 64.132h-3.333v3.334h3.333v-3.334zm0 6.668h-3.333v3.331h3.333V70.8zM85 67.466h-3.333v3.333H85v-3.333zm-6.666 0H75v3.333h3.334v-3.333zm-8.334 15h-3.333v3.333H70v-3.333zm0 6.667h-3.333v3.333H70v-3.333zm3.334-3.333H70v3.333h3.334v-3.334zm-6.667 0h-3.334v3.333h3.334v-3.334zM50 75.8h-3.333v3.333H50v-3.334zm0 6.666h-3.333v3.333H50v-3.333zm3.333-3.334H50v3.334h3.333v-3.334zm-6.666 0h-3.334v3.334h3.334v-3.334zm-28.334-60H15v3.333h3.333v-3.333zm0 6.667H15v3.333h3.333v-3.331zm3.333-3.334h-3.333v3.334h3.333v-3.334zm-6.666 0h-3.334v3.334H15v-3.334z"/><path fill="#212121" style="fill:var(--color2, #212121)" d="M77.233 44.249a5.548 5.548 0 0 0-3.684-2.198l-.029-.003a5.528 5.528 0 0 0-4.198 1.109l.013-.009-3.916 2.999-5.93 4.429-4.243-1.691C62.812 45.491 68.1 37.922 68.1 29.135c0-11.947-9.757-21.667-21.753-21.667s-21.754 9.72-21.754 21.667c0 4.33 1.296 8.357 3.5 11.746l-8.651-.076c-.027 0-.049.014-.073.014a1.646 1.646 0 0 0-.497.102l.011-.004c-.04.014-.081.023-.12.041-.02.009-.04.01-.06.02L8.6 45.965c-.001 0-.004 0-.004.003L2.68 48.812a1.25 1.25 0 0 0-.202.113l.004-.003a5.566 5.566 0 0 0-1.854 7.206l-.015-.031a5.573 5.573 0 0 0 3.261 2.766l.039.011c.502.165 1.079.26 1.679.26.963 0 1.869-.245 2.658-.676l-.029.015 4.337-2.306 7.074-3.654 4.24-.024L6.866 69.412c0 .003-.003.003-.004.004l-4.183 4.166a5.135 5.135 0 0 0-1.533 3.667v.015-.001a5.21 5.21 0 0 0 5.21 5.2h.008c1.337 0 2.67-.507 3.689-1.517l4.107-4.09 5.44-4.061 2.814 2.803-9.693 9.651a5.135 5.135 0 0 0-1.533 3.667v.014-.001c0 1.39.543 2.699 1.533 3.684a5.195 5.195 0 0 0 3.675 1.516h.011-.001a5.222 5.222 0 0 0 3.689-1.516l14.026-13.976c.021-.02.05-.027.07-.049l16.143-17.681 10.847 1.543c.079.011.157.017.236.017.2 0 .396-.049.586-.12.054-.02.101-.047.154-.073.06-.03.123-.047.18-.086l10.041-6.666c.037-.026.057-.066.091-.093.04-.031.09-.044.127-.08l3.971-3.721a5.547 5.547 0 0 0 1.763-4.062 5.54 5.54 0 0 0-1.109-3.333l.01.014zM6.658 55.532a2.204 2.204 0 0 1-1.061.269c-.244 0-.479-.039-.699-.112l.016.004a2.24 2.24 0 0 1-1.574-2.136c0-.736.355-1.388.904-1.796l.006-.004 4.106-1.976.989 2.889.414 1.214-3.1 1.647zm10.928-5.711-4.839 2.5-.797-2.333-.574-1.677 6.334-3.127-.124 4.637zm47.186-20.689c0 2.87-.686 5.577-1.871 7.999l-13.067-5.936a5.819 5.819 0 0 0-2.445-4.324l-.018-.012 4.576-15.19c7.429 2.364 12.826 9.296 12.826 17.463zm-36.84 0c0-10.109 8.263-18.334 18.42-18.334.79 0 1.563.067 2.329.164l-4.476 14.853c-.06 0-.116-.019-.179-.019h-.003a5.85 5.85 0 0 0-5.849 5.833v.001a5.85 5.85 0 0 0 5.85 5.833h.002c2.171 0 4.046-1.197 5.057-2.951l12.071 5.483c-3.36 4.521-8.734 7.469-14.803 7.469-10.157 0-18.42-8.224-18.42-18.333zm18.614 2.5c0 1.379-1.131 2.5-2.52 2.5h-.004a2.513 2.513 0 0 1-2.513-2.499v-.001c0-1.379 1.129-2.5 2.517-2.5s2.519 1.121 2.519 2.5zM7.702 78.582c-.343.34-.816.55-1.337.55-.52 0-.991-.209-1.334-.548-.34-.337-.55-.803-.55-1.319s.21-.983.55-1.319l3.007-2.996 2.663 2.65-2.996 2.983zm10.043 11.667c-.343.34-.816.55-1.337.55-.52 0-.991-.209-1.334-.548a1.852 1.852 0 0 1-.001-2.638l3.009-2.997 2.661 2.649-2.999 2.986zm10.88-10.84-.004.004-5.514 5.5-2.663-2.649 5.516-5.49c.124-.126.203-.276.28-.424.021-.043.063-.08.081-.124.051-.129.06-.267.08-.401.01-.077.043-.149.043-.229 0-.11-.04-.219-.063-.329-.02-.1-.02-.201-.059-.299a1.654 1.654 0 0 0-.287-.431l.001.001c-.031-.037-.043-.083-.077-.119h-.003s0-.004-.003-.007l-5.021-5c-.053-.053-.121-.074-.181-.12a1.566 1.566 0 0 0-.263-.176l-.009-.004a1.544 1.544 0 0 0-.281-.098l-.011-.002a1.487 1.487 0 0 0-.316-.062h-.006a1.515 1.515 0 0 0-.308.015l.009-.001a1.72 1.72 0 0 0-.324.064c-.106.033-.199.086-.294.14-.063.034-.133.047-.19.09l-5.543 4.137-2.814-2.804 7.497-7.457 13.626 13.403-2.899 2.871zm21.31-21.927c-.049-.007-.094.011-.143.009a1.693 1.693 0 0 0-.37.023l.01-.001c-.217.035-.412.11-.583.218l.006-.004a1.647 1.647 0 0 0-.259.191c-.04.034-.089.051-.126.091l-14.68 16.08-13.526-13.301 8.853-8.807a1.67 1.67 0 0 0-1.182-2.848h-.005l-6.934.04.087-5.023 9.7.083c3.949 4.052 9.459 6.566 15.557 6.566h.01-.001c1.367 0 2.7-.143 3.999-.383.124.1.249.2.404.264l7.531 3 .476 2.37.557 2.767-9.384-1.336zm12.628.557-.979-4.869 4.52-3.376 2.957 3.927-6.5 4.317zm11.729-8.847-2.617 2.453-2.91-3.863 2.597-1.991a2.29 2.29 0 0 1 1.697-.447 2.249 2.249 0 0 1 1.94 2.219c0 .642-.271 1.221-.706 1.629l-.001.001z"/><path fill="#212121" style="fill:var(--color2, #212121)" d="m42.507 57.95-6.697-6.667c-.301-.3-.717-.486-1.176-.486s-.875.186-1.176.486l-6.696 6.667c-.302.303-.488.72-.488 1.181s.186.879.488 1.181l6.694 6.667c.301.301.717.486 1.176.486s.875-.186 1.176-.487l6.697-6.667a1.663 1.663 0 0 0 0-2.362zm-7.871 5.498-4.334-4.314 4.333-4.316 4.336 4.314-4.336 4.314zm19.003-47.602-.806 3.237c.223.056 5.43 1.411 5.43 6.714h3.334c0-6.303-5.206-9.266-7.959-9.951zm7.958 13.286h-3.334v3.333h3.334v-3.333z"/></symbol><symbol id="icon-planning" viewBox="0 0 100 100"><path fill="#2196f3" style="fill:var(--color1, #2196f3)" d="M46.643 46.764h3.331v14.993h-3.331V46.764zm13.326 6.665H63.3v8.329h-3.331v-8.329zm-26.653 4.997h3.331v3.331h-3.331v-3.331zm-9.995-1.667h3.331v4.997h-3.331v-4.997z"/><path fill="#212121" style="fill:var(--color2, #212121)" d="M4.997 88.409h79.958a4.997 4.997 0 0 0 4.997-4.997v-6.663a4.997 4.997 0 0 0-4.997-4.997h-1.666V30.209l9.461-8.963a5.026 5.026 0 1 0-2.321-2.352l-.013-.03-7.129 6.757v-3.843a4.997 4.997 0 0 0-4.997-4.997H11.657a4.997 4.997 0 0 0-4.997 4.997v49.974H4.994a4.997 4.997 0 0 0-4.997 4.997v6.663a4.997 4.997 0 0 0 4.997 4.997zM94.95 15.114a1.666 1.666 0 0 1 0 3.332 1.666 1.666 0 0 1 0-3.332zM9.994 21.777c0-.92.746-1.666 1.666-1.666h66.633c.92 0 1.666.746 1.666 1.666v6.996l-3.331 3.166V25.11c0-.921-.747-1.667-1.667-1.667H14.994c-.92 0-1.667.746-1.667 1.666v41.646c0 .92.747 1.666 1.667 1.666h59.967c.921 0 1.667-.746 1.667-1.666V36.522l3.331-3.157v38.386H9.995V21.78zm14.993 21.656h-.015a4.997 4.997 0 1 0 3.476 8.587l-.001.001 5.79 2.906a1.667 1.667 0 0 0 1.989-.383l12.309-13.849 12.1 9.067c.65.486 1.556.434 2.144-.123l10.516-9.961v25.41H16.659V26.774h56.636v8.314L61.509 46.249l-12.2-9.147a1.657 1.657 0 0 0-1.001-.334 1.66 1.66 0 0 0-1.243.557l-.001.002-12.477 14.04-4.664-2.333c.033-.2.054-.401.063-.604a4.997 4.997 0 0 0-4.997-4.997zm1.666 4.997a1.666 1.666 0 0 1-3.332 0 1.666 1.666 0 0 1 3.332 0zm9.994 26.653h16.657v1.666c0 .92-.744 1.666-1.664 1.666H38.313c-.92 0-1.666-.746-1.666-1.666v-1.666zM3.333 76.749c0-.92.744-1.666 1.664-1.666h28.319v1.666a4.997 4.997 0 0 0 4.997 4.997H51.64a4.997 4.997 0 0 0 4.997-4.997v-1.666h28.319c.92 0 1.666.746 1.666 1.666v6.663c0 .92-.746 1.666-1.666 1.666H4.998c-.92 0-1.666-.746-1.666-1.666v-6.663z"/></symbol><symbol id="icon-punctuality" viewBox="0 0 100 100"><path fill="#212121" style="fill:var(--color2, #212121)" d="M97.801 47.816C97.797 21.403 76.38-.005 49.964 0 23.55.006 2.143 21.423 2.148 47.837c.006 21.212 13.819 39.196 32.94 45.453l.338.096c.19.06.386.09.586.09.376 0 .744-.101 1.069-.293.423-.25.737-.647.886-1.114l12.077-38.281a5.977 5.977 0 1 0-2.659-11.341l.035-.016-15.956-15.959a1.993 1.993 0 0 0-2.817 2.819l-.001-.001 15.947 15.966a5.785 5.785 0 0 0-.598 2.58c0 1.88.885 3.553 2.261 4.626l.013.01-11.507 36.479C12.019 80.572.373 55.344 8.751 32.601 17.13 9.858 42.357-1.788 65.101 6.591c22.743 8.377 34.389 33.606 26.01 56.349-4.202 11.192-12.51 20.019-23.043 24.807l-.275.112-1.243-5.857a1.995 1.995 0 0 0-3.279-1.073l.002-.002-11.99 10.706a1.992 1.992 0 0 0 .707 3.385l.014.004 15.309 4.886a1.991 1.991 0 0 0 2.555-2.326l.002.013-1.221-5.746c17.274-7.42 29.152-24.286 29.152-43.927v-.107.006zm-47.825-1.992a1.993 1.993 0 1 1 0 3.986 1.993 1.993 0 1 1 0-3.986zm6.563 46.45 6.826-6.089 1.884 8.876-8.71-2.787z"/><path fill="#2196f3" style="fill:var(--color1, #2196f3)" d="M47.983 9.953v3.986a1.993 1.993 0 1 0 3.986 0V9.953a1.993 1.993 0 1 0-3.986 0zm-35.87 35.871a1.993 1.993 0 1 0 0 3.986h3.986a1.993 1.993 0 1 0 0-3.986h-3.986zm75.726 3.986a1.993 1.993 0 1 0 0-3.986h-3.986a1.993 1.993 0 1 0 0 3.986h3.986z"/></symbol><symbol id="icon-attentiveness" viewBox="0 0 100 100"><path fill="#212121" style="fill:var(--color2, #212121)" d="M96.166 69.056 69.78 42.477l2.929-14.424a6.53 6.53 0 0 0 2.369.456H75.181a6.747 6.747 0 1 0-6.342-4.439l-.015-.047-15.5 1.893L28.041.5a1.662 1.662 0 0 0-1.176-.5h-.001a1.67 1.67 0 0 0-1.167.486l-4.724 4.7a1.664 1.664 0 0 0 0 2.358l2.543 2.579c-3.572 6.445-5.674 14.131-5.674 22.309 0 12.83 5.174 24.451 13.55 32.891l-.003-.003c.134.129.289.23.457.304a9.404 9.404 0 0 0-.163 1.707v19.337h-20A8.343 8.343 0 0 0 3.347 95v3.333c0 .921.747 1.667 1.667 1.667h76.667c.92 0 1.666-.746 1.666-1.667V95a8.343 8.343 0 0 0-8.332-8.333H55.014v-8.569c3.133.657 6.326.991 9.527 1a46.2 46.2 0 0 0 22.241-5.694l-.241.121 2.557 2.571c.309.316.733.496 1.176.5a1.67 1.67 0 0 0 1.167-.486l4.726-4.7a1.664 1.664 0 0 0 0-2.358zM72.75 19.479a3.333 3.333 0 1 1 2.35 5.696h-.011a3.333 3.333 0 0 1-2.333-5.696h-.006zm-3.924 10.95-1.87 9.206-3.673-3.696 5.543-5.51zm-1.893-2.819-6 5.966-4.643-4.667 10.643-1.299zM75.013 90a5 5 0 0 1 5 5v1.667H6.68V95a5 5 0 0 1 5-5h63.333zM51.68 83.333v3.334H35.013v-3.334H51.68zM35.013 80V67.333c0-4.043 3.739-7.333 8.333-7.333 4.596 0 8.334 3.29 8.334 7.333V80H35.013zm20-5.3v-7.367c0-5.881-5.233-10.666-11.667-10.666l-.182-.001A11.865 11.865 0 0 0 33.122 62.2l-.029.049a43.178 43.178 0 0 1-11.911-29.844c0-7.232 1.771-14.05 4.903-20.044l-.114.239 58.131 58.464c-5.696 2.959-12.436 4.694-19.581 4.694-3.371 0-6.651-.386-9.8-1.117l.291.057zm35.278-2.137L24.488 6.373l2.357-2.35L51.642 28.96c.011 0 .019.021.03.03l40.983 41.223-2.364 2.35z"/><path fill="#2196f3" style="fill:var(--color1, #2196f3)" d="M43.361 63.333h-.022a5 5 0 0 0-.008 10h.022a5 5 0 0 0 .008-10zm1.166 6.183a1.667 1.667 0 1 1-1.181-2.848 1.666 1.666 0 0 1 1.168 2.847h.014z"/></symbol><symbol id="icon-envelope" viewBox="0 0 100 100"><path d="M90.625 12.5H9.375C4.206 12.5 0 16.706 0 21.875v56.25C0 83.294 4.206 87.5 9.375 87.5h81.25c5.169 0 9.375-4.206 9.375-9.375v-56.25c0-5.169-4.206-9.375-9.375-9.375zm0 6.25c.425 0 .831.087 1.2.244L50 55.244 8.175 18.994a3.063 3.063 0 0 1 1.2-.244h81.25zm0 62.5H9.375a3.125 3.125 0 0 1-3.125-3.125V25.594l41.7 36.144c.546.476 1.264.766 2.05.766s1.504-.29 2.054-.77l-.004.003 41.7-36.144v52.531a3.125 3.125 0 0 1-3.125 3.125z"/></symbol><symbol id="icon-facebook" viewBox="0 0 100 100"><path d="M65.867 16.601h9.135V.701C71.151.255 66.688 0 62.166 0l-.49.001h.025c-13.165 0-22.185 8.28-22.185 23.5v14h-14.52v17.775h14.52v44.725h17.81v-44.72h13.935l2.215-17.775H57.321V25.251c0-5.135 1.385-8.65 8.545-8.65z"/></symbol><symbol id="icon-instagram" viewBox="0 0 100 100"><path d="M99.735 29.4c-.23-5.315-1.09-8.965-2.32-12.13-1.326-3.473-3.294-6.433-5.781-8.866L91.63 8.4a24.648 24.648 0 0 0-8.682-5.708l-.168-.057C79.595 1.405 75.965.55 70.65.315 65.3.06 63.6 0 50.02 0 36.445 0 34.745.06 29.41.295c-5.31.23-8.965 1.09-12.125 2.32-3.475 1.325-6.437 3.294-8.871 5.781L8.41 8.4a24.658 24.658 0 0 0-5.703 8.682l-.057.168C1.415 20.435.56 24.065.325 29.38.07 34.73.01 36.43.01 50.01c0 13.575.06 15.275.295 20.61C.54 75.935 1.4 79.585 2.63 82.75c1.333 3.47 3.298 6.429 5.777 8.867l.003.003c2.5 2.54 5.53 4.51 8.85 5.76 3.185 1.235 6.82 2.095 12.13 2.325 5.335.235 7.035.295 20.61.295 13.58 0 15.28-.06 20.61-.295 5.315-.23 8.965-1.09 12.13-2.32 6.742-2.656 11.979-7.893 14.575-14.462l.06-.173c1.23-3.185 2.09-6.82 2.325-12.13.235-5.335.29-7.035.29-20.61s-.02-15.275-.25-20.61zm-9 40.83c-.22 4.885-1.04 7.52-1.72 9.28-1.725 4.373-5.124 7.77-9.388 9.451l-.113.039c-1.75.685-4.41 1.505-9.275 1.72-5.275.235-6.855.295-20.2.295-13.34 0-14.945-.06-20.2-.295-4.885-.215-7.52-1.035-9.28-1.72a15.456 15.456 0 0 1-5.736-3.726l-.004-.004a15.567 15.567 0 0 1-3.699-5.633l-.036-.107c-.68-1.76-1.5-4.415-1.715-9.28-.235-5.275-.295-6.86-.295-20.2 0-13.345.06-14.95.295-20.2.215-4.885 1.035-7.52 1.715-9.28a15.274 15.274 0 0 1 3.745-5.74l.005-.005a15.549 15.549 0 0 1 5.643-3.695l.107-.035c1.75-.685 4.41-1.5 9.275-1.72 5.275-.23 6.86-.29 20.2-.29 13.36 0 14.945.06 20.2.29 4.885.215 7.52 1.035 9.28 1.72 2.165.8 4.14 2.07 5.74 3.73a15.605 15.605 0 0 1 3.735 5.75c.68 1.75 1.5 4.41 1.715 9.275.235 5.275.295 6.855.295 20.2 0 13.34-.06 14.9-.295 20.18z"/><path d="M50.02 24.32c-14.185.006-25.682 11.505-25.685 25.69v.005c0 14.191 11.504 25.695 25.695 25.695s25.695-11.504 25.695-25.695S64.221 24.32 50.03 24.32h-.005zm0 42.35c-9.203-.001-16.663-7.462-16.663-16.665S40.818 33.34 50.022 33.34h.003c9.205 0 16.667 7.462 16.667 16.667S59.23 66.674 50.025 66.674zm32.705-43.365a6 6 0 1 1-12 0 6 6 0 1 1 12 0z"/></symbol><symbol id="icon-linkedin" viewBox="0 0 100 100"><path d="M99.975 100H100V63.32c0-17.94-3.865-31.76-24.835-31.76-10.085 0-16.85 5.53-19.615 10.78h-.29v-9.105H35.37v66.76h20.71V66.94c0-8.705 1.65-17.125 12.43-17.125 10.62 0 10.775 9.935 10.775 17.68V100h20.69zM1.65 33.235h20.735V100H1.65V33.235zM12.01 0C5.377 0 0 5.377 0 12.01c0 6.625 5.38 12.12 12.01 12.12 6.625 0 12.005-5.49 12.005-12.12C24.012 5.38 18.64.006 12.011 0h-.001z"/></symbol><symbol id="icon-smartphone" viewBox="0 0 100 100"><path d="M71.875 0h-43.75c-5.169 0-9.375 4.206-9.375 9.375v81.25c0 5.169 4.206 9.375 9.375 9.375h43.75c5.169 0 9.375-4.206 9.375-9.375V9.375C81.25 4.206 77.044 0 71.875 0zm-43.75 6.25h43.75A3.125 3.125 0 0 1 75 9.375V75H25V9.375a3.125 3.125 0 0 1 3.125-3.125zm43.75 87.5h-43.75A3.125 3.125 0 0 1 25 90.625V81.25h50v9.375a3.125 3.125 0 0 1-3.125 3.125z"/><path d="M33.462 85.869c.563.511.915 1.246.915 2.063s-.352 1.552-.913 2.06l-.002.002c-.581.532-1.359.858-2.212.858s-1.631-.326-2.215-.86l.002.002c-.563-.511-.915-1.246-.915-2.063s.352-1.552.913-2.06l.002-.002c.581-.532 1.359-.858 2.213-.858s1.631.326 2.215.86l-.002-.002z"/></symbol><symbol id="icon-twitter" viewBox="0 0 100 100"><path d="M100 19.057c-3.431 1.539-7.412 2.674-11.58 3.207l-.212.022c4.242-2.547 7.429-6.481 8.962-11.165l.041-.144c-3.735 2.253-8.082 3.971-12.713 4.906l-.262.044c-3.742-3.989-9.047-6.474-14.932-6.474-11.298 0-20.456 9.158-20.456 20.456v.012-.001c0 1.622.135 3.184.474 4.666-17.013-.828-32.064-8.983-42.175-21.399-1.759 2.96-2.803 6.525-2.815 10.332v.003c0 7.087 3.653 13.37 9.088 17.003a20.132 20.132 0 0 1-9.339-2.568l.102.052v.225c.009 9.871 6.975 18.113 16.259 20.088l.134.024c-1.556.425-3.342.67-5.185.67l-.19-.001h.01c-1.308 0-2.63-.075-3.873-.349 2.65 8.105 10.171 14.063 19.119 14.253-6.908 5.445-15.737 8.733-25.334 8.733h-.04.002-.193A38.52 38.52 0 0 1 0 81.342l.19.02c8.816 5.758 19.609 9.183 31.203 9.183h.197-.01c37.653 0 58.239-31.191 58.239-58.229 0-.898-.03-1.777-.075-2.645 4.051-2.918 7.456-6.437 10.163-10.463l.093-.146z"/></symbol></defs></svg>